<?xml version="1.0" encoding="utf-8"?>
<!-- Generator: Adobe Illustrator 21.0.0, SVG Export Plug-In . SVG Version: 6.00 Build 0)  -->
<svg version="1.1" id="Layer_1" xmlns="http://www.w3.org/2000/svg" xmlns:xlink="http://www.w3.org/1999/xlink" x="0px" y="0px"
	 viewBox="0 0 112 56.3" style="enable-background:new 0 0 112 56.3;" xml:space="preserve">
<style type="text/css">
	.st0{fill:#fff;}
</style>
<g>
	<path class="st0" d="M40.6,22.6c0-2.9-0.6-3.9-1.3-4.3L39.1,3.8c0,0,0,0,0,0l0,0c0,0-0.1-0.1-0.2,0c-0.1,0-0.3,0.2-0.5,0.4
		c-0.4,0.4-0.9,1-1.5,1.7c-0.6,0.7-1.1,1.7-1.6,2.7c-0.5,1-0.9,2.2-1.1,3.3c-0.1,0.6-0.1,1.1,0,1.7c0.1,0.6,0.2,1.1,0.5,1.6
		c0.5,1,1.2,1.8,1.9,2.3c0.7,0.6,1.4,1,1.9,1.2c0.5,0.2,0.8,0.3,0.8,0.3s-0.3,0-0.9-0.2c-0.5-0.2-1.3-0.4-2.2-0.9
		c-0.8-0.5-1.7-1.3-2.4-2.4c-0.3-0.5-0.5-1.2-0.6-1.8c-0.1-0.6-0.1-1.3,0-1.9c0.4-2.6,1.9-4.8,3.2-6.2c0.6-0.7,1.3-1.2,1.8-1.5
		c0.2-0.2,0.5-0.2,0.6-0.3c0.1,0,0.2,0,0.2,0.1l0-0.1c-0.6-0.5-1.3-3-4.3-3c-3.8,0-8.2,5.9-9,11.4c-0.7,4.4-0.6,6.8,0.4,8.6
		c0.7-0.3,1.5-0.5,2.3-0.5c2.1,0,4,1.1,5,2.8c1.6,2.7,0.7,6.2-2.1,7.7c-0.9,0.5-1.9,0.8-2.9,0.8c-2.1,0-4-1.1-5-2.8
		c-0.5-0.8-0.8-1.7-0.8-2.6c-0.8,0.6-1.6,1.2-2.5,1.7C14,31.3,7.1,31,4.7,27c-0.8-1.3-0.3-3,1-3.7c1.3-0.8,3-0.3,3.8,1
		c0.8,1.3,0.3,3-1,3.7c-0.7,0.4-1.5,0.4-2.2,0.1c-0.4-0.1-0.8-0.4-1.1-0.8c0,0,1,1.5,3.6,2.3c0.3,0.1,0.4,0,0.6-0.2
		c2.1-1.4,2.9-4,1.6-6.1c-1.3-2.1-4.1-2.8-6.3-1.6c-2.2,1.2-2.9,4-1.6,6.1c2.1,3.6,6.3,5.4,10.6,5.1c-2.1,1.1-3.5,3.1-3.6,5.3
		c-0.1,1.5,1.1,2.7,2.6,2.7c1.5,0.1,2.8-1.1,2.8-2.5c0.1-1.5-1.1-2.6-2.6-2.7c-0.2,0-0.3-0.1-0.4,0.1C11.4,37,11.4,38,11.4,38
		c0.1-0.3,0.2-0.5,0.4-0.7c0.3-0.3,0.7-0.6,1.2-0.5c0.9,0,1.6,0.8,1.6,1.7c0,0.9-0.8,1.6-1.7,1.5c-0.9,0-1.6-0.8-1.6-1.7
		c0.1-2.7,3.6-4.8,7.8-4.6c0.1,0,0.3,0,0.4,0l0,0.4c-0.4,1.1-0.9,2.2-1.5,3.3c-3.5,6-9.3,9.7-13.4,7.5c-1.3-0.7-1.8-2.4-1.1-3.7
		c0.8-1.3,2.5-1.8,3.8-1c1.3,0.7,1.8,2.4,1.1,3.7c-0.4,0.7-1.1,1-1.9,1.2c-0.5,0.1-0.9,0-1.4-0.1c0,0,1.5,0.8,4.4,0
		c0.3-0.1,0.3-0.2,0.4-0.5c1.1-2.2,0.5-4.6-1.7-5.8c-2.2-1.2-5-0.5-6.3,1.7c-1.3,2.1-0.5,4.9,1.7,6.1c4.8,2.7,11.1,1.1,14.9-3.5
		c-1.8,3.4-1.9,7.2,0,10.5c1.3,2.1,4.1,2.8,6.3,1.6c2.2-1.2,2.9-4,1.6-6.1c-1.3-2.1-4-2.7-6.3-1.6c-0.3,0.1-0.4,0.2-0.5,0.4
		C19.2,50.4,20,52,20,52c-0.2-0.4-0.2-0.9-0.1-1.3c0.1-0.7,0.5-1.4,1.2-1.8c1.3-0.8,3-0.3,3.8,1c0.8,1.3,0.3,3-1,3.7
		c-1.3,0.8-3,0.3-3.8-1c-2.1-3.6,0.1-8.8,5.1-12.4c0,0,0,0,0,0c0.4-0.3,0.7-0.5,1.1-0.7c2.6-1.3,6.9-1,6.9-1l2.2,0v0l0.1,0l0.2,0
		l0,0l0.3,0l0.2,0C41.4,38.1,40.7,28.3,40.6,22.6"/>
	<path class="st0" d="M27,23.5c1.4-0.8,3.1-0.3,3.9,1c0.8,1.3,0.3,3-1,3.8c-1.4,0.8-3.1,0.3-3.9-1C25.2,26,25.6,24.2,27,23.5
		 M31,30.1c2.4-1.4,3.2-4.4,1.8-6.8c-1.4-2.4-4.5-3.1-7-1.8C23.4,23,22.6,26,24,28.4C25.5,30.7,28.6,31.5,31,30.1"/>
	<path class="st0" d="M27.9,26.5c0.2-0.1,0.3-0.2,0.3-0.4c0-0.2,0-0.4-0.1-0.5c-0.1-0.2-0.4-0.3-0.6-0.3c-0.1,0-0.2,0-0.3,0.1
		c-0.3,0.2-0.4,0.6-0.2,0.9C27.1,26.6,27.6,26.7,27.9,26.5"/>
	<path class="st0" d="M28.4,25.5c0.1,0.2,0.2,0.5,0.1,0.7c-0.1,0.2-0.2,0.4-0.4,0.6c0.4,0.5,1.1,0.6,1.6,0.3
		c0.6-0.3,0.8-1.1,0.5-1.7c-0.4-0.6-1.1-0.8-1.8-0.4c-0.1,0.1-0.2,0.2-0.3,0.3C28.2,25.2,28.3,25.3,28.4,25.5"/>
	<path class="st0" d="M54.3,15.4c-2.6,0-4.7-2.1-4.7-4.6c0-2.6,2-4.6,4.7-4.6c2.7,0,4.7,2,4.7,4.6C59,13.4,56.9,15.4,54.3,15.4
		 M54.3,3.4c-4.2,0-7.7,3.3-7.7,7.4c0,4.2,3.4,7.4,7.7,7.4c4.3,0,7.7-3.3,7.7-7.4C62,6.7,58.6,3.4,54.3,3.4"/>
	<path class="st0" d="M71.4,3.4c-4.4,0-7.8,3.3-7.8,7.5c0,4,3.4,7.3,7.6,7.3c1.3,0,2.7-0.4,3.8-1l0.3-0.2v-3.7l-1.1,1
		c-0.9,0.8-2,1.2-3.1,1.2c-2.5,0-4.6-2.1-4.6-4.6c0-2.6,2.1-4.7,4.6-4.7c1.1,0,2.3,0.4,3.1,1.1l1.1,1V4.6l-0.3-0.2
		C74.1,3.8,72.8,3.4,71.4,3.4"/>
	<polygon class="st0" points="77,6.5 80.2,6.5 80.2,18 83.2,18 83.2,6.5 86.3,6.5 86.3,3.7 77,3.7 	"/>
	<path class="st0" d="M95.2,15.4c-2.6,0-4.7-2.1-4.7-4.6c0-2.6,2-4.6,4.7-4.6c2.7,0,4.7,2,4.7,4.6C99.8,13.4,97.7,15.4,95.2,15.4
		 M95.2,3.4c-4.2,0-7.7,3.3-7.7,7.4c0,4.2,3.4,7.4,7.7,7.4c4.3,0,7.7-3.3,7.7-7.4C102.8,6.7,99.4,3.4,95.2,3.4"/>
	<path class="st0" d="M52.4,26.9c0,1-0.5,1.7-2.7,1.7v-3.4C51.9,25.3,52.4,25.9,52.4,26.9 M49.2,22.5h-2.6v14.3h3v-5.4H50
		c3.3,0,5.3-1.7,5.3-4.4C55.3,23.9,53.4,22.5,49.2,22.5"/>
	<path class="st0" d="M64.3,34.2c-2.6,0-4.7-2.1-4.7-4.6c0-2.6,2-4.6,4.7-4.6c2.7,0,4.7,2,4.7,4.6C69,32.2,66.9,34.2,64.3,34.2
		 M64.3,22.2c-4.2,0-7.7,3.3-7.7,7.4c0,4.2,3.4,7.4,7.7,7.4c4.3,0,7.7-3.3,7.7-7.4C71.9,25.5,68.5,22.2,64.3,22.2"/>
	<path class="st0" d="M82.2,30.8c0,3.1-1.5,3.4-2.6,3.4c-1.1,0-2.6-0.4-2.6-3.4v-8.3h-3v8.9c0,3.3,2.3,5.7,5.6,5.7
		c3.3,0,5.6-2.3,5.6-5.7v-8.9h-3V30.8z"/>
	<path class="st0" d="M95.4,22.2c-4.4,0-7.8,3.3-7.8,7.5c0,4,3.4,7.3,7.6,7.3c1.3,0,2.7-0.4,3.8-1l0.3-0.2v-3.7l-1.1,1
		c-0.9,0.8-2,1.2-3.1,1.2c-2.5,0-4.6-2.1-4.6-4.6c0-2.6,2.1-4.7,4.6-4.7c1.1,0,2.3,0.4,3.1,1.1l1.1,1v-3.7l-0.3-0.2
		C98,22.6,96.7,22.2,95.4,22.2"/>
	<polygon class="st0" points="102.2,22.5 102.2,36.8 110.7,36.8 110.7,34 105.2,34 105.2,30.4 110.5,30.4 110.5,27.6 105.2,27.6 
		105.2,25.3 110.7,25.3 110.7,22.5 	"/>
</g>
</svg>
